<svg xmlns="http://www.w3.org/2000/svg" viewBox="0 0 64 64" fill="none" role="img" aria-label="ProWo">
  <defs>
    <linearGradient id="favicon-stem" x1="0" y1="0" x2="0" y2="1">
      <stop offset="0%" stop-color="#A78BFA"/>
      <stop offset="100%" stop-color="#6D28D9"/>
    </linearGradient>
    <linearGradient id="favicon-stem-dark" x1="0" y1="0" x2="0" y2="1">
      <stop offset="0%" stop-color="#7C3AED"/>
      <stop offset="100%" stop-color="#4C1D95"/>
    </linearGradient>
    <linearGradient id="favicon-bowl-top" x1="0" y1="0" x2="1" y2="0">
      <stop offset="0%" stop-color="#9B6BFA"/>
      <stop offset="100%" stop-color="#7C3AED"/>
    </linearGradient>
    <linearGradient id="favicon-bowl-light" x1="0" y1="0" x2="1" y2="1">
      <stop offset="0%" stop-color="#C4B5FD"/>
      <stop offset="100%" stop-color="#7C3AED"/>
    </linearGradient>
    <linearGradient id="favicon-fold" x1="0" y1="0" x2="0" y2="1">
      <stop offset="0%" stop-color="#A78BFA"/>
      <stop offset="100%" stop-color="#5B21B6"/>
    </linearGradient>
  </defs>
  <rect width="64" height="64" rx="14" fill="#0A0A0C"/>
  <g transform="translate(8 4)">
    <path d="M14 8 L36 8 L24 22 Z" fill="url(#favicon-bowl-top)"/>
    <path d="M36 8 L44 22 L34 30 L24 22 Z" fill="url(#favicon-bowl-light)"/>
    <path d="M14 8 L24 22 L34 30 L14 30 Z" fill="url(#favicon-stem)"/>
    <path d="M14 30 L34 30 L26 40 L14 40 Z" fill="url(#favicon-fold)"/>
    <path d="M14 8 L22 8 L18 56 L10 56 Z" fill="url(#favicon-stem-dark)"/>
    <path d="M14 8 L14 56 L10 56 Z" fill="url(#favicon-stem)" opacity="0.55"/>
  </g>
</svg>
